<?xml version="1.0" encoding="UTF-8" standalone="no"?>
<svg
   xmlns:dc="http://purl.org/dc/elements/1.1/"
   xmlns:cc="http://creativecommons.org/ns#"
   xmlns:rdf="http://www.w3.org/1999/02/22-rdf-syntax-ns#"
   xmlns:svg="http://www.w3.org/2000/svg"
   xmlns="http://www.w3.org/2000/svg"
   xmlns:sodipodi="http://sodipodi.sourceforge.net/DTD/sodipodi-0.dtd"
   xmlns:inkscape="http://www.inkscape.org/namespaces/inkscape"
   width="188.80797mm"
   height="122.54417mm"
   viewBox="0 0 188.80797 122.54417"
   version="1.1"
   id="svg8"
   inkscape:version="1.0.2-2 (e86c870879, 2021-01-15)"
   sodipodi:docname="ampel_RB.svg">
  <defs
     id="defs2">
    <inkscape:perspective
       sodipodi:type="inkscape:persp3d"
       inkscape:vp_x="454.27578 : 80.802182 : 1"
       inkscape:vp_y="-2.4162777 : -999.99712 : 0"
       inkscape:vp_z="157.27666 : 81.519812 : 1"
       inkscape:persp3d-origin="305.86079 : 116.16089 : 1"
       id="perspective2728" />
    <rect
       x="32.72604"
       y="79.797737"
       width="27.794718"
       height="19.725283"
       id="rect2578" />
    <marker
       style="overflow:visible"
       id="marker1588"
       refX="0"
       refY="0"
       orient="auto"
       inkscape:stockid="Arrow1Mstart"
       inkscape:isstock="true">
      <path
         transform="matrix(0.4,0,0,0.4,4,0)"
         style="fill:#727272;fill-opacity:1;fill-rule:evenodd;stroke:#727272;stroke-width:1pt;stroke-opacity:1"
         d="M 0,0 5,-5 -12.5,0 5,5 Z"
         id="path1586" />
    </marker>
    <marker
       style="overflow:visible"
       id="Arrow1Mstart"
       refX="0"
       refY="0"
       orient="auto"
       inkscape:stockid="Arrow1Mstart"
       inkscape:isstock="true"
       inkscape:collect="always">
      <path
         transform="matrix(0.4,0,0,0.4,4,0)"
         style="fill:#727272;fill-opacity:1;fill-rule:evenodd;stroke:#727272;stroke-width:1pt;stroke-opacity:1"
         d="M 0,0 5,-5 -12.5,0 5,5 Z"
         id="path926" />
    </marker>
    <marker
       style="overflow:visible"
       id="marker1296"
       refX="0"
       refY="0"
       orient="auto"
       inkscape:stockid="Arrow1Lstart"
       inkscape:isstock="true">
      <path
         transform="matrix(0.8,0,0,0.8,10,0)"
         style="fill:#727272;fill-opacity:1;fill-rule:evenodd;stroke:#727272;stroke-width:1pt;stroke-opacity:1"
         d="M 0,0 5,-5 -12.5,0 5,5 Z"
         id="path1294" />
    </marker>
    <marker
       style="overflow:visible"
       id="Arrow1Lstart"
       refX="0"
       refY="0"
       orient="auto"
       inkscape:stockid="Arrow1Lstart"
       inkscape:isstock="true">
      <path
         transform="matrix(0.8,0,0,0.8,10,0)"
         style="fill:#727272;fill-opacity:1;fill-rule:evenodd;stroke:#727272;stroke-width:1pt;stroke-opacity:1"
         d="M 0,0 5,-5 -12.5,0 5,5 Z"
         id="path920" />
    </marker>
    <marker
       style="overflow:visible"
       id="Arrow1Mstart-9"
       refX="0"
       refY="0"
       orient="auto"
       inkscape:stockid="Arrow1Mstart"
       inkscape:isstock="true">
      <path
         transform="matrix(0.4,0,0,0.4,4,0)"
         style="fill:#727272;fill-opacity:1;fill-rule:evenodd;stroke:#727272;stroke-width:1pt;stroke-opacity:1"
         d="M 0,0 5,-5 -12.5,0 5,5 Z"
         id="path926-3" />
    </marker>
    <marker
       style="overflow:visible"
       id="Arrow1Mstart-0-1"
       refX="0"
       refY="0"
       orient="auto"
       inkscape:stockid="Arrow1Mstart"
       inkscape:isstock="true"
       inkscape:collect="always">
      <path
         transform="matrix(0.4,0,0,0.4,4,0)"
         style="fill:#009a1b;fill-opacity:1;fill-rule:evenodd;stroke:#009a1b;stroke-width:1pt;stroke-opacity:1"
         d="M 0,0 5,-5 -12.5,0 5,5 Z"
         id="path926-5-4" />
    </marker>
    <marker
       style="overflow:visible"
       id="Arrow1Mstart-0-2"
       refX="0"
       refY="0"
       orient="auto"
       inkscape:stockid="Arrow1Mstart"
       inkscape:isstock="true"
       inkscape:collect="always">
      <path
         transform="matrix(0.4,0,0,0.4,4,0)"
         style="fill:#009a1b;fill-opacity:1;fill-rule:evenodd;stroke:#009a1b;stroke-width:1pt;stroke-opacity:1"
         d="M 0,0 5,-5 -12.5,0 5,5 Z"
         id="path926-5-6" />
    </marker>
    <rect
       x="32.72604"
       y="79.797737"
       width="27.794718"
       height="19.725283"
       id="rect2578-8" />
    <rect
       x="32.72604"
       y="79.797737"
       width="27.794718"
       height="19.725283"
       id="rect2594" />
    <rect
       x="32.72604"
       y="79.797737"
       width="27.794718"
       height="19.725283"
       id="rect2578-6" />
    <rect
       x="32.72604"
       y="79.797737"
       width="27.794718"
       height="19.725283"
       id="rect2655" />
    <rect
       x="32.72604"
       y="79.797737"
       width="27.794718"
       height="19.725283"
       id="rect2578-6-9" />
    <rect
       x="32.72604"
       y="79.797737"
       width="27.794718"
       height="19.725283"
       id="rect2695" />
  </defs>
  <sodipodi:namedview
     id="base"
     pagecolor="#ffffff"
     bordercolor="#666666"
     borderopacity="1.0"
     inkscape:pageopacity="0.0"
     inkscape:pageshadow="2"
     inkscape:zoom="0.41732742"
     inkscape:cx="171.04062"
     inkscape:cy="3.1783142"
     inkscape:document-units="mm"
     inkscape:current-layer="layer1"
     inkscape:document-rotation="0"
     showgrid="false"
     showguides="true"
     inkscape:guide-bbox="true"
     inkscape:window-width="1680"
     inkscape:window-height="987"
     inkscape:window-x="-8"
     inkscape:window-y="15"
     inkscape:window-maximized="1" />
  <metadata
     id="metadata5">
    <rdf:RDF>
      <cc:Work
         rdf:about="">
        <dc:format>image/svg+xml</dc:format>
        <dc:type
           rdf:resource="http://purl.org/dc/dcmitype/StillImage" />
        <dc:title />
      </cc:Work>
    </rdf:RDF>
  </metadata>
  <g
     inkscape:label="Ebene 1"
     inkscape:groupmode="layer"
     id="layer1"
     transform="translate(-7.9286517,-6.6680783)">
    <path
       style="fill:#000000;stroke-width:1"
       d="m 183.52713,117.83054 c -1.0477,-0.0122 -9.68744,-0.0697 -19.19943,-0.12767 -9.512,-0.058 -20.13685,-0.12957 -23.6108,-0.1591 -5.67168,-0.0482 -20.26161,-0.14504 -44.665001,-0.29643 -4.659495,-0.0289 -10.569712,-0.0746 -13.133813,-0.10161 -2.564102,-0.027 -9.76013,-0.0724 -15.991173,-0.1009 -6.231043,-0.0285 -12.389399,-0.0733 -13.685236,-0.0996 -1.295836,-0.0263 -8.42419,-0.0764 -15.840786,-0.11146 -7.416595,-0.0351 -13.510751,-0.0786 -13.542569,-0.0968 -0.03181,-0.0182 -3.578229,-0.0399 -7.880917,-0.0481 -4.302688,-0.008 -7.8846435,-0.0531 -7.9599005,-0.0996 -0.07525,-0.0465 -0.109463,-0.11193 -0.07602,-0.14538 0.03343,-0.0334 3.2579475,-0.0615 7.1655565,-0.0624 6.465809,-0.002 7.073184,-0.0154 6.753838,-0.15505 -0.558063,-0.24409 -1.5245,-0.97539 -1.886392,-1.42743 -0.492157,-0.61476 -0.898842,-1.44506 -1.038146,-2.1195 l -0.123325,-0.59706 H 15.17957 c -3.311601,0 -3.978306,-0.0448 -3.653398,-0.24563 0.05596,-0.0346 0.01682,-0.23667 -0.09468,-0.48871 -0.648505,-1.46605 -0.418416,-4.12075 0.53822,-6.20979 0.782511,-1.70881 2.213345,-3.32823 3.464396,-3.92101 l 0.661933,-0.31364 2.373671,0.0345 2.373674,0.0345 0.145572,-0.28515 c 0.140223,-0.27467 3.350011,-8.895055 3.540632,-9.508905 l 0.0934,-0.30078 9.973182,-0.008 c 5.485249,-0.004 10.05286,0.0124 10.150245,0.0372 0.09739,0.0247 0.165062,0.0981 0.150387,0.16301 -0.01468,0.0649 1.4396,2.36005 3.231714,5.1003 l 3.25839,4.982285 7.218586,3.9e-4 c 7.037959,4e-4 7.2268,-0.005 7.546848,-0.19977 0.445174,-0.27142 0.881257,-0.26101 1.065196,0.0254 0.07967,0.12407 0.2214,0.49237 0.31496,0.81845 0.253981,0.88518 0.07679,2.06398 -0.310252,2.06398 -0.12788,0 -0.144987,0.31329 -0.121793,2.23074 l 0.027,2.23074 0.490424,0.15517 c 1.070438,0.3387 1.952958,2.03234 1.575849,3.02421 -0.0491,0.12914 -0.231955,0.38755 -0.406345,0.57423 l -0.317069,0.33943 -5.087283,-0.0658 -5.087284,-0.0658 -0.113654,0.54186 c -0.327876,1.56315 -1.53457,2.96534 -3.118194,3.62338 l -0.568969,0.23642 6.416521,0.0154 c 3.529086,0.008 6.664659,0.025 6.96794,0.0368 0.303281,0.0118 6.754892,0.0526 14.336914,0.0908 7.582021,0.0382 14.417116,0.0904 15.189106,0.11602 0.77198,0.0256 7.291271,0.0704 14.487301,0.0994 7.19603,0.0291 14.12136,0.0771 15.38962,0.10677 l 2.30594,0.054 -0.70135,-0.38066 c -1.30163,-0.70647 -2.29309,-2.00609 -2.5823,-3.38491 l -0.1164,-0.55492 h -3.6328 c -3.31101,0 -3.97766,-0.0448 -3.65276,-0.24563 0.0562,-0.0347 0.0198,-0.23341 -0.0885,-0.48315 -0.45748,-1.05503 -0.50018,-2.71894 -0.11123,-4.33426 0.60104,-2.49613 2.30085,-4.90288 4.08131,-5.7787 l 0.68517,-0.33704 2.40776,0.0342 2.40776,0.0342 0.13006,-0.33494 c 0.31542,-0.81233 3.4065,-9.187805 3.49076,-9.458435 l 0.0936,-0.30077 10.02335,0.0241 c 5.51285,0.0133 10.08173,0.0245 10.15308,0.0251 0.0713,3.9e-4 0.11645,0.0606 0.10025,0.13344 -0.0162,0.0729 1.43682,2.37365 3.22894,5.11285 l 3.25838,4.980385 7.21859,-7e-5 c 7.03755,-6e-5 7.22682,-0.005 7.54685,-0.2002 0.44572,-0.27176 0.88056,-0.26086 1.06904,0.0268 0.54059,0.82503 0.5412,2.88105 0.001,2.88105 -0.12788,0 -0.14499,0.3133 -0.12179,2.23075 l 0.027,2.23074 0.49042,0.15517 c 1.07043,0.33869 1.95296,2.03233 1.57585,3.0242 -0.0491,0.12915 -0.23186,0.38745 -0.40613,0.57401 l -0.31686,0.3392 -5.08671,-0.0693 -5.08671,-0.0693 -0.11444,0.54561 c -0.28959,1.38061 -1.43325,2.82711 -2.72179,3.4425 l -0.63798,0.30468 9.51082,0.0686 c 20.02899,0.14451 25.00099,0.20548 25.02606,0.30687 0.0231,0.0935 -8.00993,0.14429 -13.2093,0.0835 z m -25.41544,-0.76318 c -1.3208,-0.64647 -2.42727,-2.06118 -2.72258,-3.48104 l -0.11469,-0.55142 -9.34549,-0.04 -9.3455,-0.04 -0.0696,0.4644 c -0.18717,1.24821 -1.40473,2.83016 -2.66168,3.45826 l -0.62773,0.31368 4.19742,0.0272 c 2.30858,0.015 7.55611,0.0398 11.66118,0.0552 4.10507,0.0154 7.48502,0.0492 7.511,0.0752 0.026,0.026 0.52474,0.0451 1.10833,0.0424 l 1.06106,-0.005 -0.65168,-0.31896 z m -107.03037,-0.653 c -1.580815,-0.66683 -2.736759,-2.03426 -3.068685,-3.6301 l -0.114693,-0.55142 -9.345487,-0.04 -9.345491,-0.04 -0.06964,0.46437 c -0.196088,1.3076 -1.419435,2.85317 -2.782673,3.51563 l -0.734095,0.35673 6.216005,0.0272 c 19.411649,0.0848 19.685172,0.0834 19.244755,-0.10241 z m 110.71129,-1.18335 c 1.77838,-0.85835 2.17711,-3.11858 0.79414,-4.50155 -0.67182,-0.67182 -1.29613,-0.89668 -2.30738,-0.83108 -1.12565,0.073 -1.97386,0.61634 -2.43808,1.56168 -0.23003,0.46842 -0.2798,0.69961 -0.27434,1.27407 0.0203,2.13339 2.24958,3.45065 4.22566,2.49688 z m -29.16651,-0.14663 c 1.03361,-0.5165 1.55738,-1.35456 1.56289,-2.50064 0.008,-1.65358 -1.22802,-2.84787 -2.94648,-2.84714 -1.18717,3.9e-4 -2.09042,0.54227 -2.59819,1.5584 -0.97023,1.94162 0.42727,4.09564 2.65737,4.09589 0.59234,7e-5 0.81315,-0.051 1.32441,-0.30651 z m -78.209954,-0.65877 c 1.060936,-0.50531 1.721227,-1.6575 1.603511,-2.7981 -0.111729,-1.08254 -0.896573,-2.07722 -1.902702,-2.4114 -0.624522,-0.20743 -1.771945,-0.15365 -2.278892,0.10681 -1.319622,0.67801 -1.942872,1.98813 -1.564678,3.28906 0.519819,1.78812 2.435495,2.62677 4.142761,1.81363 z m -29.166521,-0.1433 c 1.03618,-0.51778 1.560759,-1.35826 1.560759,-2.50063 0,-1.90543 -1.846969,-3.29902 -3.669934,-2.76907 -1.70294,0.49505 -2.574325,2.08292 -2.026063,3.69197 0.543304,1.59452 2.561063,2.36436 4.135238,1.57773 z m 147.245905,-1.6735 c -0.0411,-0.0965 -0.096,-0.42841 -0.12201,-0.73758 -0.0454,-0.54068 -0.033,-0.57631 0.32412,-0.93345 0.41118,-0.41118 0.71931,-0.55972 1.16111,-0.55972 h 0.29424 v -2.9353 -2.93531 l -0.62661,-0.27187 c -0.34463,-0.14953 -1.00536,-0.40962 -1.46828,-0.57798 -1.07339,-0.39039 -1.21795,-0.47047 -1.15328,-0.63897 0.0291,-0.0758 0.32439,-0.23678 0.65624,-0.35778 0.33186,-0.121 0.58835,-0.23336 0.57001,-0.24969 -0.0718,-0.0638 -11.77528,-0.15426 -26.50152,-0.20475 -8.49186,-0.0291 -16.77067,-0.086 -18.39736,-0.12642 -3.7682,-0.0936 -3.66418,-0.0998 -4.37266,0.25789 -2.96096,1.49468 -5.0081,6.75751 -3.76022,9.66682 l 0.20316,0.47366 3.46362,0.0276 3.4636,0.0276 -4e-5,-0.46566 c -9e-5,-1.02498 0.69069,-2.48464 1.56618,-3.30939 1.00679,-0.94844 2.14395,-1.38824 3.58943,-1.38824 1.48265,0 2.51113,0.3922 3.54953,1.35359 1.00087,0.92662 1.50036,1.90366 1.67086,3.26831 l 0.0698,0.55892 5.63001,0.0663 c 3.0965,0.0365 7.28802,0.0664 9.31449,0.0664 l 3.68448,1e-4 v -0.49073 c 0,-1.6329 1.23967,-3.40794 2.93956,-4.20909 3.19438,-1.50549 6.90958,0.4887 7.4017,3.97295 l 0.11683,0.82713 h 3.40388 c 3.20345,0 3.39948,-0.0103 3.3291,-0.17545 z m -18.09339,-0.74759 c 0,-0.62038 0.25305,-1.51523 0.62974,-2.22691 0.38578,-0.72884 1.34381,-1.71712 1.99823,-2.06128 l 0.47241,-0.24846 0.0289,-2.03252 c 0.0185,-1.30354 -0.007,-2.0355 -0.0714,-2.04083 -0.0551,-0.005 -3.56292,-0.001 -7.79507,0.008 -4.79202,0.01 -7.69481,-0.0197 -7.69481,-0.0789 0,-0.17358 1.49208,-0.2152 8.67233,-0.24195 l 7.11833,-0.0265 0.0308,2.3797 c 0.0308,2.37733 0.0306,2.37971 -0.18458,2.37971 -0.11848,0 -0.48105,0.18632 -0.8057,0.41406 -1.19841,0.84063 -1.99261,2.27621 -2.12394,3.83918 -0.0414,0.49306 -0.27527,0.43945 -0.27527,-0.0631 z m -11.68007,-6.56973 c -0.44796,-0.15815 -0.50129,-0.20838 -0.50129,-0.47214 0,-0.48397 0.46328,-0.68182 1.72826,-0.73808 1.17508,-0.0523 2.01589,0.0874 2.27953,0.37876 0.23948,0.26463 0.15921,0.51003 -0.24386,0.74544 -0.4967,0.29008 -2.53256,0.34376 -3.26264,0.086 z m 2.94057,-0.33645 c 0.39773,-0.13865 0.40216,-0.24268 0.016,-0.37728 -0.76386,-0.26628 -2.51923,-0.21571 -3.00851,0.0867 -0.62566,0.38667 1.98861,0.64054 2.99247,0.29059 z m 30.34245,7.59673 c 0.28431,-0.43392 0.34675,-1.11461 0.14382,-1.56787 -0.28829,-0.64391 -0.66785,-1.07343 -1.14805,-1.29915 -0.24455,-0.11496 -0.46554,-0.20901 -0.49109,-0.20901 -0.0255,0 -0.0599,0.28198 -0.0763,0.62661 l -0.0298,0.62662 -0.50129,0.0539 c -0.62441,0.0672 -0.90768,0.22035 -1.1018,0.59574 -0.20237,0.39134 -0.19148,0.55511 0.0675,1.016 l 0.21899,0.38962 h 1.38284 c 1.33561,0 1.38804,-0.008 1.53517,-0.23249 z M 65.119054,111.80674 c -0.04114,-0.0965 -0.09603,-0.42841 -0.121996,-0.73758 -0.0454,-0.54067 -0.03304,-0.5763 0.324107,-0.93344 0.41118,-0.41118 0.71932,-0.55972 1.161111,-0.55972 h 0.29425 v -2.93531 -2.9353 l -0.626613,-0.27187 c -0.34464,-0.14953 -1.005365,-0.40962 -1.468277,-0.57798 -1.073401,-0.39039 -1.217947,-0.47048 -1.153288,-0.63898 0.02909,-0.0758 0.331933,-0.24427 0.673008,-0.37443 l 0.620136,-0.23665 -4.511616,-0.0614 c -2.481389,-0.0337 -11.978341,-0.0904 -21.104338,-0.12592 -9.125997,-0.0355 -17.855975,-0.0978 -19.39995,-0.13839 -3.756412,-0.0988 -3.606676,-0.10773 -4.327026,0.25719 -2.965155,1.50213 -4.999515,6.76371 -3.745909,9.68826 l 0.193352,0.45107 3.463611,0.0276 3.463611,0.0276 -4.7e-5,-0.46566 c -9.9e-5,-1.41663 1.036293,-3.10009 2.45628,-3.98973 1.101308,-0.68998 2.891484,-0.92719 4.160713,-0.55131 2.065551,0.61171 3.515812,2.33183 3.76371,4.46404 l 0.06513,0.56018 5.630003,0.0663 c 3.096504,0.0365 7.288025,0.0664 9.314494,0.0664 l 3.684487,1e-4 v -0.49073 c 0,-1.11447 0.733676,-2.60077 1.686512,-3.41658 3.182035,-2.72443 8.061334,-0.93117 8.661,3.18313 l 0.12016,0.82443 h 3.39909 c 3.198882,0 3.394686,-0.0103 3.324296,-0.17545 z m -18.093381,-0.75593 c 0,-0.61257 0.254778,-1.51015 0.629739,-2.21857 0.385773,-0.72884 1.343815,-1.71711 1.998228,-2.06128 l 0.472413,-0.24845 0.02889,-2.03252 c 0.02487,-1.75064 0.008,-2.03332 -0.121513,-2.03828 -0.08271,-0.003 -3.590497,-4e-4 -7.795071,0.006 -4.631716,0.007 -7.644683,-0.0252 -7.644683,-0.0814 0,-0.1738 1.348678,-0.21161 8.572071,-0.24035 l 7.218586,-0.0287 0.03083,2.38109 c 0.0298,2.30183 0.02435,2.38109 -0.164029,2.38109 -0.32814,0 -1.37405,0.77274 -1.798465,1.32874 -0.696344,0.91223 -1.126223,2.00014 -1.126223,2.85017 0,0.31802 -0.03992,0.43296 -0.150387,0.43296 -0.110308,0 -0.150387,-0.11462 -0.150387,-0.43009 z m -11.479557,-6.47567 c -0.165426,-0.0426 -0.404992,-0.13347 -0.532363,-0.2019 -0.347809,-0.18684 -0.260596,-0.59918 0.181459,-0.85796 0.306763,-0.17958 0.521149,-0.20542 1.704389,-0.20542 1.410036,0 1.807121,0.0924 2.04553,0.47623 0.140788,0.22663 -0.0064,0.47429 -0.400519,0.6742 -0.32638,0.16552 -2.481409,0.24806 -2.998496,0.11485 z m 2.746279,-0.42434 c 0.40976,-0.14284 0.393194,-0.24622 -0.06437,-0.40179 -0.737181,-0.25062 -3.032809,-0.0845 -3.032809,0.21954 0,0.34509 2.250235,0.4775 3.097183,0.18225 z m 30.33623,7.5989 c 0.284311,-0.43391 0.346751,-1.1146 0.143816,-1.56787 -0.288286,-0.6439 -0.66785,-1.07343 -1.148051,-1.29915 -0.244555,-0.11495 -0.465545,-0.20901 -0.491083,-0.20901 -0.02554,0 -0.05987,0.28198 -0.07629,0.62662 l -0.02984,0.62661 -0.50129,0.0539 c -0.624407,0.0672 -0.90768,0.22035 -1.101802,0.59574 -0.202371,0.39134 -0.191481,0.55511 0.06755,1.01601 l 0.218977,0.38961 h 1.382844 c 1.335604,0 1.388042,-0.008 1.535173,-0.23249 z m 105.165095,-8.18087 c -0.10929,-0.27316 -0.14946,-0.57462 -0.11606,-0.87099 0.0442,-0.39227 0.0291,-0.44356 -0.11276,-0.3813 -0.0901,0.0396 -0.55993,0.208 -1.04404,0.3743 -0.48411,0.16629 -0.84504,0.33422 -0.80206,0.37317 0.043,0.039 0.32627,0.15057 0.62955,0.24804 0.30328,0.0975 0.77523,0.30405 1.04879,0.45906 0.27354,0.15501 0.5123,0.2669 0.53055,0.24864 0.0182,-0.0182 -0.042,-0.22117 -0.13397,-0.45092 z m 0.70759,-1.08478 c -0.1194,-0.41072 -0.18846,-0.52477 -0.25455,-0.42034 -0.16946,0.26777 -0.0984,1.12756 0.13207,1.59706 l 0.22142,0.45116 0.0324,-0.53212 c 0.018,-0.29573 -0.0403,-0.78251 -0.13139,-1.09576 z m -108.084995,0.31771 c -0.105516,-0.25253 -0.146037,-0.55801 -0.115782,-0.87286 0.04009,-0.41723 0.0242,-0.47453 -0.114701,-0.41342 -0.08869,0.039 -0.557329,0.20699 -1.041437,0.37329 -0.484105,0.1663 -0.845034,0.33423 -0.802066,0.37318 0.04297,0.0389 0.32627,0.15056 0.62955,0.24804 0.303281,0.0975 0.775233,0.30405 1.048783,0.45906 0.273555,0.155 0.511005,0.26819 0.527674,0.25152 0.01666,-0.0167 -0.04274,-0.20513 -0.132021,-0.41881 z m 0.73882,-1.02829 c -0.175614,-0.595 -0.322539,-0.57189 -0.358743,0.0564 -0.0223,0.3871 0.02992,0.65073 0.198582,1.00258 l 0.228845,0.47737 0.02964,-0.55142 c 0.0163,-0.30328 -0.02795,-0.74652 -0.09832,-0.98497 z m 91.127445,0.0498 c -0.0625,-0.16298 -5.91126,-9.111645 -6.25226,-9.566085 l -0.2439,-0.32506 -9.72641,0.0352 c -5.51866,0.0199 -9.76054,0.0738 -9.8053,0.12454 -0.11185,0.12669 -3.51865,9.343015 -3.51865,9.518895 0,0.0798 0.0624,0.14513 0.13857,0.14513 0.14185,0 0.21474,-0.19285 2.34916,-6.216005 l 1.08362,-3.05788 4.4554,-0.0261 4.45538,-0.0261 -0.0288,4.71319 c -0.0251,4.105115 -0.01,4.713195 0.1194,4.713195 0.0815,0 0.17146,-0.0376 0.19986,-0.0835 0.0284,-0.0459 0.0578,-2.166415 0.0654,-4.712145 l 0.0138,-4.62859 h 4.94766 4.94765 l 0.94177,1.37855 c 0.51796,0.7582 1.9666,2.90122 3.21919,4.76226 1.75566,2.608505 2.32463,3.383715 2.48348,3.383715 0.13009,0 0.18722,-0.0491 0.15498,-0.13311 z m -17.43933,-4.555065 0.0261,-4.53778 -4.17802,0.0262 -4.17801,0.0262 -1.53198,4.3111 c -0.84259,2.3711 -1.53457,4.389655 -1.53772,4.485645 -0.005,0.16338 0.3233,0.17622 5.13249,0.20052 2.82603,0.0143 5.38637,0.026 5.68965,0.026 h 0.55142 z m 16.56663,4.533815 c 0,-0.0298 -1.36177,-2.080455 -3.02618,-4.557125 l -3.02618,-4.50304 -4.71876,0.0205 -4.71876,0.0205 -0.0261,4.53668 -0.0261,4.536685 h 7.77103 c 4.27406,0 7.77103,-0.0244 7.77103,-0.0541 z M 50.862039,100.97739 c -0.0283,-0.13787 -6.103751,-9.435335 -6.300924,-9.642485 -0.118254,-0.12424 -1.504567,-0.14085 -9.889949,-0.11848 -5.363826,0.0143 -9.779254,0.0568 -9.812055,0.0944 -0.09835,0.1127 -3.499522,9.346185 -3.499522,9.500485 0,0.0784 0.06277,0.14252 0.139481,0.14252 0.08637,0 0.278217,-0.39133 0.503817,-1.027655 0.200386,-0.56521 0.940635,-2.65183 1.645004,-4.63694 l 1.280667,-3.60929 4.456585,-0.0261 4.456585,-0.0261 -0.02882,4.71319 c -0.0251,4.105105 -0.0097,4.713195 0.119406,4.713195 0.08152,0 0.171828,-0.0382 0.200678,-0.0849 0.02885,-0.0467 0.05747,-2.167565 0.0636,-4.713065 l 0.01113,-4.62819 4.97623,0.026 4.976226,0.026 3.197354,4.74261 c 2.348586,3.48363 3.241247,4.732935 3.362705,4.706185 0.09095,-0.0201 0.154749,-0.0881 0.141783,-0.15132 z m -17.395257,-4.511255 0.02609,-4.53778 -4.174812,0.0262 -4.174808,0.0262 -1.535608,4.3111 c -0.84458,2.37111 -1.537995,4.389655 -1.540924,4.485675 -0.005,0.16346 0.331172,0.17621 5.283296,0.20052 2.908737,0.0143 5.469081,0.0259 5.689649,0.0259 h 0.401033 z m 16.566635,4.533555 c 0,-0.0299 -1.362867,-2.080615 -3.028589,-4.557135 l -3.028589,-4.50277 -4.716352,0.0204 -4.716353,0.0205 -0.02609,4.53668 -0.02609,4.536685 h 7.771028 c 4.274064,0 7.771028,-0.0245 7.771028,-0.0544 z"
       id="path24" />
    <path
       id="path40"
       style="fill:none;stroke:#727272;stroke-width:0.999999px;stroke-linecap:butt;stroke-linejoin:miter;stroke-opacity:1"
       d="M 255.56836,49.142578 V 367.3418 Z"
       transform="scale(0.26458333)" />
    <path
       style="fill:none;stroke:#727272;stroke-width:0.264583px;stroke-linecap:butt;stroke-linejoin:miter;stroke-opacity:1"
       d="m 174.50131,97.192368 v -84.189888 0 0"
       id="path40-7" />
    <path
       style="fill:none;stroke:#727272;stroke-width:0.265;stroke-linecap:butt;stroke-linejoin:miter;stroke-miterlimit:4;stroke-dasharray:none;stroke-opacity:1;marker-start:url(#Arrow1Mstart)"
       d="M 171.51821,13.002307 H 69.708939 v 0 0"
       id="path40-78" />
    <path
       style="fill:none;stroke:#727272;stroke-width:0.264999;stroke-linecap:butt;stroke-linejoin:miter;stroke-miterlimit:4;stroke-dasharray:none;stroke-opacity:1;marker-start:url(#Arrow1Mstart-9);marker-end:url(#marker1588)"
       d="M 173.56449,33.007786 H 68.712816 v 0 0"
       id="path40-78-9" />
    <text
       xml:space="preserve"
       style="font-style:normal;font-weight:normal;font-size:6.35px;line-height:1.25;font-family:sans-serif;fill:#000000;fill-opacity:1;stroke:none;stroke-width:0.264583"
       x="112.56243"
       y="11.49259"
       id="text1500"><tspan
         sodipodi:role="line"
         id="tspan1498"
         x="112.56243"
         y="11.49259"
         style="font-size:6.35px;stroke-width:0.264583">Zeit t</tspan></text>
    <text
       xml:space="preserve"
       style="font-style:normal;font-weight:normal;font-size:6.35px;line-height:1.25;font-family:sans-serif;fill:#000000;fill-opacity:1;stroke:none;stroke-width:0.264583"
       x="100.09032"
       y="29.459717"
       id="text1500-7"><tspan
         sodipodi:role="line"
         id="tspan1498-1"
         x="100.09032"
         y="29.459717"
         style="font-size:6.35px;stroke-width:0.264583">Wegstrecke s</tspan></text>
    <path
       style="fill:none;stroke:#009a1b;stroke-width:0.464999;stroke-linecap:butt;stroke-linejoin:miter;stroke-miterlimit:4;stroke-dasharray:none;stroke-opacity:1;marker-start:url(#Arrow1Mstart-0-1)"
       d="m 44.411951,88.271107 h -12.94578 v 0 0"
       id="path40-78-6-1" />
    <path
       style="fill:none;stroke:#009a1b;stroke-width:0.464999;stroke-linecap:butt;stroke-linejoin:miter;stroke-miterlimit:4;stroke-dasharray:none;stroke-opacity:1;marker-start:url(#Arrow1Mstart-0-2)"
       d="m 160.95875,88.271107 h -29.4708 v 0 0"
       id="path40-78-6-5" />
    <text
       xml:space="preserve"
       id="text2576"
       style="font-style:normal;font-weight:normal;font-size:6.35px;line-height:1.25;font-family:sans-serif;white-space:pre;shape-inside:url(#rect2578);fill:#000000;fill-opacity:1;stroke:none;"
       transform="translate(1.4442138,0.44121101)"><tspan
         x="32.726562"
         y="85.415137"><tspan
           style="shape-inside:url(#rect2578)">v</tspan><tspan
           style="font-size:65%;baseline-shift:sub">0</tspan></tspan></text>
    <text
       xml:space="preserve"
       id="text2576-3"
       style="font-style:normal;font-weight:normal;font-size:6.35px;line-height:1.25;font-family:sans-serif;white-space:pre;shape-inside:url(#rect2578-8);fill:#000000;fill-opacity:1;stroke:none;"
       transform="translate(109.12267,0.44121101)"><tspan
         x="32.726562"
         y="85.415137"><tspan
           style="font-size:6.35px;shape-inside:url(#rect2578-8)">v</tspan><tspan
           style="font-size:65%;baseline-shift:sub">1</tspan></tspan></text>
    <g
       id="g1657"
       transform="translate(-123.98979,-0.44830189)">
      <rect
         style="fill:#3d3d3d;fill-opacity:1;stroke:#3d3d3d;stroke-width:0.00999997;stroke-linecap:round;stroke-linejoin:round;stroke-miterlimit:4;stroke-dasharray:none;stroke-opacity:1;paint-order:stroke fill markers"
         id="rect3083"
         width="1.4264877"
         height="28.879581"
         x="228.16258"
         y="88.812111"
         rx="0.71324384"
         ry="0.71324384" />
      <path
         d="m 228.21714,85.843722 -4.20785,0.820907 0.0407,-16.828423 4.2071,-0.513389 z"
         style="fill:#e9e9ff;fill-rule:evenodd;stroke:none;stroke-width:1.75748;stroke-linecap:round;stroke-linejoin:round;stroke-miterlimit:4;stroke-dasharray:none;stroke-opacity:1;paint-order:stroke fill markers"
         id="path1579" />
      <path
         d="m 232.43001,88.505363 0.0423,-17.502014 -4.21524,-1.680532 -0.0399,16.520905 z"
         style="fill:#353564;fill-rule:evenodd;stroke:none;stroke-width:1.75748;stroke-linecap:round;stroke-linejoin:round;stroke-miterlimit:4;stroke-dasharray:none;stroke-opacity:1;paint-order:stroke fill markers"
         id="path1581" />
      <path
         d="m 232.43001,88.505363 -4.3795,0.923164 -4.04122,-2.763898 4.20785,-0.820907 z"
         style="fill:#4d4d9f;fill-rule:evenodd;stroke:none;stroke-width:1.75748;stroke-linecap:round;stroke-linejoin:round;stroke-miterlimit:4;stroke-dasharray:none;stroke-opacity:1;paint-order:stroke fill markers"
         id="path1583" />
      <path
         d="m 232.4723,71.003349 -4.37866,0.577653 -4.04368,-1.744796 4.2071,-0.513389 z"
         style="fill:#c7c7c7;fill-opacity:1;fill-rule:evenodd;stroke:none;stroke-width:1.75748;stroke-linecap:round;stroke-linejoin:round;stroke-miterlimit:4;stroke-dasharray:none;stroke-opacity:1;paint-order:stroke fill markers"
         id="path1585" />
      <path
         d="m 228.05051,89.428527 0.0431,-17.847525 -4.04368,-1.744796 -0.0407,16.828423 z"
         style="fill:#595959;fill-opacity:1;fill-rule:evenodd;stroke:none;stroke-width:1.75748;stroke-linecap:round;stroke-linejoin:round;stroke-miterlimit:4;stroke-dasharray:none;stroke-opacity:1;paint-order:stroke fill markers"
         id="path1587" />
      <path
         d="m 232.43001,88.505363 -4.3795,0.923164 0.0431,-17.847525 4.37866,-0.577653 z"
         style="fill:#6d6d6d;fill-opacity:1;fill-rule:evenodd;stroke:none;stroke-width:1.75748;stroke-linecap:round;stroke-linejoin:round;stroke-miterlimit:4;stroke-dasharray:none;stroke-opacity:1;paint-order:stroke fill markers"
         id="path1589" />
      <path
         style="fill:#3d3d3d;fill-opacity:1;stroke:#3d3d3d;stroke-width:0.0649999;stroke-linecap:round;stroke-linejoin:round;stroke-miterlimit:4;stroke-dasharray:none;stroke-opacity:1;paint-order:stroke fill markers"
         d="m 224.41571,72.924106 -0.36653,-0.10141 V 72.551493 72.28029 l 0.18822,7.94e-4 c 0.4961,0.0019 1.30937,0.131191 1.74347,0.277363 0.18113,0.06099 0.19942,0.07385 0.0892,0.06274 -0.35055,-0.03536 -0.75788,0.07681 -1.09682,0.302022 -0.0911,0.06053 -0.17134,0.108341 -0.17831,0.106238 -0.007,-0.0021 -0.17761,-0.04946 -0.3792,-0.10523 z"
         id="path2939" />
      <ellipse
         style="fill:#5d271d;fill-opacity:1;stroke:none;stroke-width:0.465;stroke-linecap:round;stroke-linejoin:round;stroke-miterlimit:4;stroke-dasharray:none;stroke-opacity:1;paint-order:stroke fill markers"
         id="path2744"
         cx="225.93098"
         cy="74.216988"
         rx="1.6136513"
         ry="1.5849866" />
      <path
         style="fill:#3d3d3d;fill-opacity:1;stroke:#3d3d3d;stroke-width:0.0649999;stroke-linecap:round;stroke-linejoin:round;stroke-miterlimit:4;stroke-dasharray:none;stroke-opacity:1;paint-order:stroke fill markers"
         d="m 223.868,72.799455 c -0.0763,-0.01878 -0.35456,-0.08297 -0.61839,-0.14265 -0.26384,-0.05968 -0.48134,-0.110138 -0.48334,-0.112135 -0.007,-0.0066 0.15943,-0.08302 0.24838,-0.114221 0.23227,-0.08145 0.52169,-0.130921 0.9004,-0.153898 l 0.0966,-0.0058 v 0.282525 c 0,0.15539 -0.001,0.282043 -0.002,0.281453 -0.001,-5.29e-4 -0.0649,-0.01643 -0.14116,-0.03522 z"
         id="path2941" />
      <ellipse
         style="fill:#5d271d;fill-opacity:1;stroke:none;stroke-width:0.465;stroke-linecap:round;stroke-linejoin:round;stroke-miterlimit:4;stroke-dasharray:none;stroke-opacity:1;paint-order:stroke fill markers"
         id="path2744-4"
         cx="225.97945"
         cy="78.971947"
         rx="1.6136513"
         ry="1.5849866" />
      <ellipse
         style="fill:#16ca00;fill-opacity:1;stroke:none;stroke-width:0.465;stroke-linecap:round;stroke-linejoin:round;stroke-miterlimit:4;stroke-dasharray:none;stroke-opacity:1;paint-order:stroke fill markers"
         id="path2744-8"
         cx="225.97946"
         cy="83.726913"
         rx="1.6136513"
         ry="1.5849866" />
      <path
         style="fill:none;stroke:#000000;stroke-width:0.065;stroke-linecap:round;stroke-linejoin:miter;stroke-miterlimit:4;stroke-dasharray:none;stroke-opacity:1"
         d="m 227.26018,82.721332 c -0.61777,-0.980213 -3.6867,-1.318969 -4.54423,-0.675818 0.10727,0.818041 0.89761,1.557987 1.64003,1.706471"
         id="path2777-5"
         sodipodi:nodetypes="ccc" />
      <path
         style="fill:none;stroke:#000000;stroke-width:0.065;stroke-linecap:round;stroke-linejoin:miter;stroke-miterlimit:4;stroke-dasharray:none;stroke-opacity:1"
         d="m 222.71595,82.045514 c 1.57808,0.37283 3.99181,0.751369 4.73903,2.245799"
         id="path2779-7"
         sodipodi:nodetypes="cc" />
      <path
         style="fill:none;stroke:#000000;stroke-width:0.065;stroke-linecap:round;stroke-linejoin:miter;stroke-miterlimit:4;stroke-dasharray:none;stroke-opacity:1"
         d="m 227.26018,82.721332 c 0.31949,0.335869 0.41936,1.022532 0.1948,1.569981"
         id="path2781-8"
         sodipodi:nodetypes="cc" />
      <path
         style="fill:none;stroke:#000000;stroke-width:0.065;stroke-linecap:round;stroke-linejoin:miter;stroke-miterlimit:4;stroke-dasharray:none;stroke-opacity:1"
         d="m 224.35598,83.751985 c 0.0603,-0.437462 0.17894,-0.866453 0.49991,-1.161133"
         id="path2783-0"
         sodipodi:nodetypes="cc" />
      <path
         style="fill:none;stroke:#000000;stroke-width:0.065;stroke-linecap:round;stroke-linejoin:miter;stroke-miterlimit:4;stroke-dasharray:none;stroke-opacity:1"
         d="m 227.25205,78.000933 c -0.61777,-0.980213 -3.6867,-1.318969 -4.54423,-0.675818 0.10727,0.818041 0.89761,1.557987 1.64003,1.706471"
         id="path2777-5-6"
         sodipodi:nodetypes="ccc" />
      <path
         style="fill:none;stroke:#000000;stroke-width:0.065;stroke-linecap:round;stroke-linejoin:miter;stroke-miterlimit:4;stroke-dasharray:none;stroke-opacity:1"
         d="m 222.70782,77.325115 c 1.57808,0.37283 3.99181,0.751369 4.73903,2.245799"
         id="path2779-7-0"
         sodipodi:nodetypes="cc" />
      <path
         style="fill:none;stroke:#000000;stroke-width:0.065;stroke-linecap:round;stroke-linejoin:miter;stroke-miterlimit:4;stroke-dasharray:none;stroke-opacity:1"
         d="m 227.25205,78.000933 c 0.31949,0.335869 0.41936,1.022532 0.1948,1.569981"
         id="path2781-8-3"
         sodipodi:nodetypes="cc" />
      <path
         style="fill:none;stroke:#000000;stroke-width:0.065;stroke-linecap:round;stroke-linejoin:miter;stroke-miterlimit:4;stroke-dasharray:none;stroke-opacity:1"
         d="m 224.34785,79.031586 c 0.0603,-0.437462 0.17894,-0.866453 0.49991,-1.161133"
         id="path2783-0-9"
         sodipodi:nodetypes="cc" />
      <path
         style="fill:none;stroke:#000000;stroke-width:0.065;stroke-linecap:round;stroke-linejoin:miter;stroke-miterlimit:4;stroke-dasharray:none;stroke-opacity:1"
         d="m 227.21056,73.238617 c -0.61777,-0.980213 -3.6867,-1.318969 -4.54423,-0.675818 0.10727,0.818041 0.89761,1.557987 1.64003,1.706471"
         id="path2777-5-9"
         sodipodi:nodetypes="ccc" />
      <path
         style="fill:#3d3d3d;fill-opacity:1;stroke:#3d3d3d;stroke-width:0.0649999;stroke-linecap:round;stroke-linejoin:round;stroke-miterlimit:4;stroke-dasharray:none;stroke-opacity:1;paint-order:stroke fill markers"
         d="m 223.88659,74.080224 c -0.44063,-0.218078 -0.81372,-0.587896 -1.02062,-1.011685 -0.0346,-0.07083 -0.0762,-0.168899 -0.0924,-0.217937 -0.034,-0.102666 -0.063,-0.22288 -0.0556,-0.230283 0.007,-0.0072 1.30971,0.287653 1.32112,0.299059 0.007,0.007 -0.0108,1.223981 -0.0179,1.223981 -0.004,0 -0.0645,-0.02841 -0.13469,-0.06314 z"
         id="path2943" />
      <path
         style="fill:#3d3d3d;fill-opacity:1;stroke:#3d3d3d;stroke-width:0.0649999;stroke-linecap:round;stroke-linejoin:round;stroke-miterlimit:4;stroke-dasharray:none;stroke-opacity:1;paint-order:stroke fill markers"
         d="m 224.20481,74.206671 c -0.12047,-0.0354 -0.16473,-0.05568 -0.1575,-0.07215 0.0124,-0.02818 0.0214,-0.301802 0.0251,-0.760923 l 0.004,-0.447807 0.0248,0.006 c 0.0665,0.01598 0.47223,0.124537 0.55734,0.14909 l 0.0967,0.0279 -0.0451,0.04422 c -0.11578,0.113628 -0.25694,0.365308 -0.32492,0.579284 -0.0375,0.118152 -0.0785,0.292198 -0.0974,0.413787 -0.007,0.04211 -0.0167,0.07626 -0.0225,0.07588 -0.006,-2.64e-4 -0.0329,-0.0072 -0.0601,-0.01524 z"
         id="path2945" />
      <path
         style="fill:none;stroke:#000000;stroke-width:0.065;stroke-linecap:round;stroke-linejoin:miter;stroke-miterlimit:4;stroke-dasharray:none;stroke-opacity:1"
         d="m 222.66633,72.562799 c 1.57808,0.37283 3.99181,0.751369 4.73903,2.245799"
         id="path2779-7-7"
         sodipodi:nodetypes="cc" />
      <path
         style="fill:none;stroke:#000000;stroke-width:0.065;stroke-linecap:round;stroke-linejoin:miter;stroke-miterlimit:4;stroke-dasharray:none;stroke-opacity:1"
         d="m 227.21056,73.238617 c 0.31949,0.335869 0.41936,1.022532 0.1948,1.569981"
         id="path2781-8-5"
         sodipodi:nodetypes="cc" />
      <path
         style="fill:none;stroke:#000000;stroke-width:0.065;stroke-linecap:round;stroke-linejoin:miter;stroke-miterlimit:4;stroke-dasharray:none;stroke-opacity:1"
         d="m 224.30636,74.26927 c 0.0603,-0.437462 0.17894,-0.866453 0.49991,-1.161133"
         id="path2783-0-8"
         sodipodi:nodetypes="cc" />
      <path
         style="fill:#3d3d3d;fill-opacity:1;stroke:#3d3d3d;stroke-width:0.01;stroke-linecap:round;stroke-linejoin:round;stroke-miterlimit:4;stroke-dasharray:none;stroke-opacity:1;paint-order:stroke fill markers"
         d="m 226.44186,72.71255 c -0.0608,-0.02066 -0.15918,-0.04548 -0.22532,-0.05688 -0.0266,-0.0046 -0.0492,-0.0092 -0.0503,-0.01032 -10e-4,-0.0011 -2.6e-4,-0.007 0.002,-0.01312 0.004,-0.01251 0.002,-0.02657 -0.006,-0.03566 -0.007,-0.0084 -0.005,-0.0079 0.0356,0.0066 0.10996,0.03948 0.31739,0.12714 0.29986,0.126712 -0.003,-7.2e-5 -0.028,-0.0079 -0.0559,-0.01733 z"
         id="path2951" />
      <path
         style="fill:#3d3d3d;fill-opacity:1;stroke:#3d3d3d;stroke-width:0.01;stroke-linecap:round;stroke-linejoin:round;stroke-miterlimit:4;stroke-dasharray:none;stroke-opacity:1;paint-order:stroke fill markers"
         d="m 227.37717,74.683942 c -0.13825,-0.242538 -0.34635,-0.483306 -0.59027,-0.682937 -0.22151,-0.18129 -0.46993,-0.338439 -0.77073,-0.487553 -0.32482,-0.161028 -0.67398,-0.297273 -1.10849,-0.432551 -0.0376,-0.0117 -0.0697,-0.0217 -0.0714,-0.02225 -0.004,-0.0013 0.0493,-0.04796 0.0997,-0.08695 0.30124,-0.233006 0.69284,-0.356061 1.06941,-0.33605 0.0936,0.005 0.13026,0.0097 0.21919,0.02797 0.0842,0.01733 0.14883,0.03398 0.2198,0.05658 0.0299,0.0095 0.0565,0.01733 0.0589,0.01733 0.01,0 0.0925,0.03743 0.13949,0.063 0.16401,0.08917 0.28454,0.17513 0.39037,0.2784 0.0565,0.05512 0.0945,0.09901 0.13036,0.150688 0.0134,0.01926 0.0353,0.04763 0.0488,0.06304 0.12353,0.141346 0.21913,0.364628 0.25718,0.600654 0.017,0.105238 0.0208,0.155335 0.0209,0.274934 1.9e-4,0.163825 -0.0128,0.274434 -0.0493,0.420283 -0.0104,0.04169 -0.0387,0.134927 -0.0408,0.134803 -2.6e-4,-2.2e-5 -0.0108,-0.01775 -0.0231,-0.03939 z"
         id="path2953" />
      <path
         style="fill:#3d3d3d;fill-opacity:1;stroke:#3d3d3d;stroke-width:0.0649999;stroke-linecap:round;stroke-linejoin:round;stroke-miterlimit:4;stroke-dasharray:none;stroke-opacity:1;paint-order:stroke fill markers"
         d="m 224.4572,77.686422 -0.36652,-0.101409 V 77.31381 77.042606 l 0.18821,7.94e-4 c 0.4961,0.0019 1.30938,0.131191 1.74348,0.277363 0.18113,0.06099 0.19941,0.07386 0.0892,0.06274 -0.35054,-0.03536 -0.75787,0.07681 -1.09681,0.302022 -0.0911,0.06053 -0.17134,0.108342 -0.17832,0.106238 -0.007,-0.0021 -0.17761,-0.04946 -0.3792,-0.10523 z"
         id="path2939-6" />
      <path
         style="fill:#3d3d3d;fill-opacity:1;stroke:#3d3d3d;stroke-width:0.0649999;stroke-linecap:round;stroke-linejoin:round;stroke-miterlimit:4;stroke-dasharray:none;stroke-opacity:1;paint-order:stroke fill markers"
         d="m 223.90949,77.561772 c -0.0763,-0.01879 -0.35455,-0.08297 -0.61839,-0.14265 -0.26384,-0.05968 -0.48134,-0.110138 -0.48334,-0.112136 -0.007,-0.0066 0.15943,-0.08302 0.24839,-0.114221 0.23227,-0.08145 0.52168,-0.130921 0.9004,-0.153897 l 0.0966,-0.0058 v 0.282524 c 0,0.15539 -10e-4,0.282043 -0.002,0.281453 -0.001,-5.29e-4 -0.0649,-0.01643 -0.14116,-0.03522 z"
         id="path2941-5" />
      <path
         style="fill:none;stroke:#000000;stroke-width:0.065;stroke-linecap:round;stroke-linejoin:miter;stroke-miterlimit:4;stroke-dasharray:none;stroke-opacity:1"
         d="m 227.25205,78.000933 c -0.61777,-0.980213 -3.6867,-1.318969 -4.54423,-0.675818 0.10727,0.818041 0.89761,1.557987 1.64003,1.706471"
         id="path2777-5-9-2"
         sodipodi:nodetypes="ccc" />
      <path
         style="fill:#3d3d3d;fill-opacity:1;stroke:#3d3d3d;stroke-width:0.0649999;stroke-linecap:round;stroke-linejoin:round;stroke-miterlimit:4;stroke-dasharray:none;stroke-opacity:1;paint-order:stroke fill markers"
         d="m 223.92809,78.84254 c -0.44063,-0.218077 -0.81372,-0.587896 -1.02063,-1.011684 -0.0346,-0.07083 -0.0761,-0.1689 -0.0924,-0.217938 -0.034,-0.102666 -0.063,-0.222879 -0.0556,-0.230282 0.007,-0.0072 1.3097,0.287652 1.32111,0.299058 0.007,0.007 -0.0108,1.223981 -0.0179,1.223981 -0.004,0 -0.0645,-0.02841 -0.13468,-0.06314 z"
         id="path2943-3" />
      <path
         style="fill:#3d3d3d;fill-opacity:1;stroke:#3d3d3d;stroke-width:0.0649999;stroke-linecap:round;stroke-linejoin:round;stroke-miterlimit:4;stroke-dasharray:none;stroke-opacity:1;paint-order:stroke fill markers"
         d="m 224.2463,78.968987 c -0.12047,-0.0354 -0.16473,-0.05568 -0.15749,-0.07215 0.0124,-0.02818 0.0214,-0.301803 0.0251,-0.760923 l 0.004,-0.447808 0.0248,0.006 c 0.0664,0.01598 0.47224,0.124537 0.55735,0.149091 l 0.0967,0.0279 -0.0451,0.04422 c -0.11578,0.113628 -0.25695,0.365308 -0.32492,0.579284 -0.0375,0.118153 -0.0785,0.292198 -0.0974,0.413787 -0.007,0.04211 -0.0167,0.07626 -0.0225,0.07588 -0.006,-2.65e-4 -0.0329,-0.0072 -0.0601,-0.01524 z"
         id="path2945-0" />
      <path
         style="fill:none;stroke:#000000;stroke-width:0.065;stroke-linecap:round;stroke-linejoin:miter;stroke-miterlimit:4;stroke-dasharray:none;stroke-opacity:1"
         d="m 222.70782,77.325115 c 1.57808,0.37283 3.99181,0.751369 4.73903,2.245799"
         id="path2779-7-7-7"
         sodipodi:nodetypes="cc" />
      <path
         style="fill:none;stroke:#000000;stroke-width:0.065;stroke-linecap:round;stroke-linejoin:miter;stroke-miterlimit:4;stroke-dasharray:none;stroke-opacity:1"
         d="m 227.25205,78.000933 c 0.31949,0.335869 0.41936,1.022532 0.1948,1.569981"
         id="path2781-8-5-6"
         sodipodi:nodetypes="cc" />
      <path
         style="fill:none;stroke:#000000;stroke-width:0.065;stroke-linecap:round;stroke-linejoin:miter;stroke-miterlimit:4;stroke-dasharray:none;stroke-opacity:1"
         d="m 224.34785,79.031586 c 0.0603,-0.437462 0.17894,-0.866453 0.49991,-1.161133"
         id="path2783-0-8-2"
         sodipodi:nodetypes="cc" />
      <path
         style="fill:#3d3d3d;fill-opacity:1;stroke:#3d3d3d;stroke-width:0.01;stroke-linecap:round;stroke-linejoin:round;stroke-miterlimit:4;stroke-dasharray:none;stroke-opacity:1;paint-order:stroke fill markers"
         d="m 226.48336,77.474867 c -0.0608,-0.02066 -0.15918,-0.04548 -0.22533,-0.05688 -0.0266,-0.0046 -0.0492,-0.0092 -0.0503,-0.01032 -0.001,-0.0011 -2.7e-4,-0.007 0.002,-0.01312 0.004,-0.01252 0.002,-0.02658 -0.006,-0.03566 -0.007,-0.0084 -0.005,-0.0079 0.0356,0.0066 0.10995,0.03948 0.31739,0.127141 0.29986,0.126712 -0.003,-7.1e-5 -0.028,-0.0079 -0.0559,-0.01733 z"
         id="path2951-8" />
      <path
         style="fill:#3d3d3d;fill-opacity:1;stroke:#3d3d3d;stroke-width:0.01;stroke-linecap:round;stroke-linejoin:round;stroke-miterlimit:4;stroke-dasharray:none;stroke-opacity:1;paint-order:stroke fill markers"
         d="m 227.41867,79.446259 c -0.13826,-0.242539 -0.34636,-0.483307 -0.59028,-0.682938 -0.22151,-0.181289 -0.46993,-0.338439 -0.77072,-0.487553 -0.32483,-0.161028 -0.67398,-0.297272 -1.1085,-0.432551 -0.0376,-0.0117 -0.0697,-0.0217 -0.0714,-0.02225 -0.004,-0.0013 0.0493,-0.04796 0.0997,-0.08695 0.30124,-0.233005 0.69283,-0.35606 1.06941,-0.33605 0.0936,0.005 0.13025,0.0097 0.21919,0.02797 0.0842,0.01733 0.14883,0.03398 0.21979,0.05658 0.0299,0.0095 0.0565,0.01733 0.0589,0.01733 0.01,0 0.0925,0.03743 0.1395,0.06299 0.16401,0.08918 0.28454,0.17513 0.39037,0.2784 0.0565,0.05512 0.0945,0.09902 0.13035,0.150688 0.0134,0.01926 0.0353,0.04763 0.0488,0.06304 0.12353,0.141346 0.21913,0.364628 0.25718,0.600655 0.017,0.105238 0.0208,0.155334 0.0209,0.274934 1.9e-4,0.163824 -0.0128,0.274433 -0.0493,0.420282 -0.0104,0.04169 -0.0387,0.134927 -0.0408,0.134803 -2.7e-4,-2.1e-5 -0.0108,-0.01775 -0.0231,-0.03939 z"
         id="path2953-2" />
      <path
         style="fill:#3d3d3d;fill-opacity:1;stroke:#3d3d3d;stroke-width:0.0649999;stroke-linecap:round;stroke-linejoin:round;stroke-miterlimit:4;stroke-dasharray:none;stroke-opacity:1;paint-order:stroke fill markers"
         d="m 224.46533,82.406821 -0.36652,-0.101409 v -0.271203 -0.271203 l 0.18821,7.93e-4 c 0.4961,0.0019 1.30938,0.131191 1.74348,0.277363 0.18113,0.06099 0.19941,0.07386 0.0892,0.06274 -0.35054,-0.03536 -0.75787,0.07681 -1.09681,0.302022 -0.0911,0.06053 -0.17134,0.108342 -0.17832,0.106238 -0.007,-0.0021 -0.17761,-0.04946 -0.3792,-0.10523 z"
         id="path2939-8" />
      <path
         style="fill:#3d3d3d;fill-opacity:1;stroke:#3d3d3d;stroke-width:0.0649999;stroke-linecap:round;stroke-linejoin:round;stroke-miterlimit:4;stroke-dasharray:none;stroke-opacity:1;paint-order:stroke fill markers"
         d="m 223.91762,82.282171 c -0.0763,-0.01879 -0.35455,-0.08297 -0.61839,-0.14265 -0.26384,-0.05968 -0.48134,-0.110138 -0.48334,-0.112136 -0.007,-0.0066 0.15943,-0.08302 0.24839,-0.11422 0.23227,-0.08145 0.52168,-0.130922 0.9004,-0.153898 l 0.0966,-0.0058 v 0.282524 c 0,0.15539 -0.001,0.282044 -0.002,0.281454 -0.001,-5.3e-4 -0.0649,-0.01643 -0.14116,-0.03522 z"
         id="path2941-1" />
      <path
         style="fill:none;stroke:#000000;stroke-width:0.065;stroke-linecap:round;stroke-linejoin:miter;stroke-miterlimit:4;stroke-dasharray:none;stroke-opacity:1"
         d="m 227.26018,82.721332 c -0.61777,-0.980213 -3.6867,-1.318969 -4.54423,-0.675818 0.10727,0.818041 0.89761,1.557987 1.64003,1.706471"
         id="path2777-5-9-3"
         sodipodi:nodetypes="ccc" />
      <path
         style="fill:#3d3d3d;fill-opacity:1;stroke:#3d3d3d;stroke-width:0.0649999;stroke-linecap:round;stroke-linejoin:round;stroke-miterlimit:4;stroke-dasharray:none;stroke-opacity:1;paint-order:stroke fill markers"
         d="m 223.93622,83.56294 c -0.44063,-0.218078 -0.81372,-0.587897 -1.02063,-1.011685 -0.0346,-0.07083 -0.0761,-0.1689 -0.0924,-0.217937 -0.034,-0.102667 -0.063,-0.22288 -0.0556,-0.230283 0.007,-0.0072 1.3097,0.287652 1.32111,0.299058 0.007,0.007 -0.0108,1.223981 -0.0179,1.223981 -0.004,0 -0.0645,-0.02841 -0.13468,-0.06313 z"
         id="path2943-9" />
      <path
         style="fill:#3d3d3d;fill-opacity:1;stroke:#3d3d3d;stroke-width:0.0649999;stroke-linecap:round;stroke-linejoin:round;stroke-miterlimit:4;stroke-dasharray:none;stroke-opacity:1;paint-order:stroke fill markers"
         d="m 224.25443,83.689387 c -0.12047,-0.0354 -0.16473,-0.05568 -0.15749,-0.07215 0.0124,-0.02818 0.0214,-0.301802 0.0251,-0.760923 l 0.004,-0.447807 0.0248,0.006 c 0.0665,0.01598 0.47224,0.124536 0.55735,0.14909 l 0.0967,0.0279 -0.0451,0.04422 c -0.11578,0.113628 -0.25695,0.365308 -0.32492,0.579285 -0.0375,0.118152 -0.0785,0.292197 -0.0974,0.413787 -0.007,0.04211 -0.0167,0.07626 -0.0225,0.07588 -0.006,-2.65e-4 -0.0329,-0.0072 -0.0601,-0.01524 z"
         id="path2945-6" />
      <path
         style="fill:none;stroke:#000000;stroke-width:0.065;stroke-linecap:round;stroke-linejoin:miter;stroke-miterlimit:4;stroke-dasharray:none;stroke-opacity:1"
         d="m 222.71595,82.045514 c 1.57808,0.37283 3.99181,0.751369 4.73903,2.245799"
         id="path2779-7-7-6"
         sodipodi:nodetypes="cc" />
      <path
         style="fill:none;stroke:#000000;stroke-width:0.065;stroke-linecap:round;stroke-linejoin:miter;stroke-miterlimit:4;stroke-dasharray:none;stroke-opacity:1"
         d="m 227.26018,82.721332 c 0.31949,0.335869 0.41936,1.022532 0.1948,1.569981"
         id="path2781-8-5-0"
         sodipodi:nodetypes="cc" />
      <path
         style="fill:none;stroke:#000000;stroke-width:0.065;stroke-linecap:round;stroke-linejoin:miter;stroke-miterlimit:4;stroke-dasharray:none;stroke-opacity:1"
         d="m 224.35598,83.751985 c 0.0603,-0.437462 0.17894,-0.866453 0.49991,-1.161133"
         id="path2783-0-8-0"
         sodipodi:nodetypes="cc" />
      <path
         style="fill:#3d3d3d;fill-opacity:1;stroke:#3d3d3d;stroke-width:0.01;stroke-linecap:round;stroke-linejoin:round;stroke-miterlimit:4;stroke-dasharray:none;stroke-opacity:1;paint-order:stroke fill markers"
         d="m 226.49149,82.195266 c -0.0608,-0.02066 -0.15918,-0.04548 -0.22533,-0.05688 -0.0266,-0.0046 -0.0492,-0.0092 -0.0503,-0.01032 -0.001,-0.0011 -2.7e-4,-0.007 0.002,-0.01312 0.004,-0.01251 0.002,-0.02657 -0.006,-0.03566 -0.007,-0.0084 -0.005,-0.0079 0.0356,0.0066 0.10995,0.03948 0.31739,0.12714 0.29986,0.126711 -0.003,-7.1e-5 -0.028,-0.0079 -0.0559,-0.01733 z"
         id="path2951-2" />
      <path
         style="fill:#3d3d3d;fill-opacity:1;stroke:#3d3d3d;stroke-width:0.01;stroke-linecap:round;stroke-linejoin:round;stroke-miterlimit:4;stroke-dasharray:none;stroke-opacity:1;paint-order:stroke fill markers"
         d="m 227.4268,84.166658 c -0.13826,-0.242538 -0.34636,-0.483307 -0.59028,-0.682937 -0.22151,-0.18129 -0.46993,-0.338439 -0.77072,-0.487553 -0.32483,-0.161028 -0.67398,-0.297273 -1.1085,-0.432552 -0.0376,-0.01169 -0.0697,-0.0217 -0.0714,-0.02225 -0.004,-0.0013 0.0493,-0.04796 0.0997,-0.08695 0.30124,-0.233005 0.69283,-0.35606 1.06941,-0.33605 0.0936,0.005 0.13025,0.0097 0.21919,0.02797 0.0842,0.01733 0.14883,0.03398 0.21979,0.05658 0.0299,0.0095 0.0565,0.01733 0.0589,0.01733 0.01,0 0.0925,0.03743 0.1395,0.06299 0.16401,0.08917 0.28454,0.175131 0.39037,0.2784 0.0565,0.05512 0.0945,0.09901 0.13035,0.150688 0.0134,0.01926 0.0353,0.04763 0.0488,0.06304 0.12353,0.141345 0.21913,0.364627 0.25718,0.600654 0.017,0.105238 0.0208,0.155334 0.0209,0.274934 1.9e-4,0.163825 -0.0128,0.274434 -0.0493,0.420282 -0.0104,0.04169 -0.0387,0.134927 -0.0408,0.134803 -2.7e-4,-2.1e-5 -0.0108,-0.01775 -0.0231,-0.03939 z"
         id="path2953-5" />
      <path
         style="fill:#3d3d3d;fill-opacity:1;stroke:#3d3d3d;stroke-width:0.0649999;stroke-linecap:round;stroke-linejoin:round;stroke-miterlimit:4;stroke-dasharray:none;stroke-opacity:1;paint-order:stroke fill markers"
         d="m 224.4157,72.924106 -0.36652,-0.101409 V 72.551493 72.28029 l 0.18821,7.94e-4 c 0.4961,0.0019 1.30938,0.131191 1.74348,0.277363 0.18113,0.06099 0.19941,0.07386 0.0892,0.06274 -0.35054,-0.03536 -0.75787,0.07681 -1.09681,0.302022 -0.0911,0.06053 -0.17134,0.108341 -0.17832,0.106238 -0.007,-0.0021 -0.17761,-0.04946 -0.3792,-0.10523 z"
         id="path2939-0" />
      <path
         style="fill:#3d3d3d;fill-opacity:1;stroke:#3d3d3d;stroke-width:0.0649999;stroke-linecap:round;stroke-linejoin:round;stroke-miterlimit:4;stroke-dasharray:none;stroke-opacity:1;paint-order:stroke fill markers"
         d="m 223.86799,72.799456 c -0.0763,-0.01879 -0.35455,-0.08297 -0.61839,-0.142651 -0.26384,-0.05968 -0.48134,-0.110138 -0.48334,-0.112135 -0.007,-0.0066 0.15943,-0.08302 0.24839,-0.114221 0.23227,-0.08145 0.52168,-0.130921 0.9004,-0.153897 l 0.0966,-0.0058 v 0.282525 c 0,0.15539 -0.001,0.282043 -0.002,0.281453 -0.001,-5.29e-4 -0.0649,-0.01643 -0.14116,-0.03522 z"
         id="path2941-4" />
      <path
         style="fill:none;stroke:#000000;stroke-width:0.065;stroke-linecap:round;stroke-linejoin:miter;stroke-miterlimit:4;stroke-dasharray:none;stroke-opacity:1"
         d="m 227.21055,73.238617 c -0.61777,-0.980213 -3.6867,-1.318969 -4.54423,-0.675818 0.10727,0.818041 0.89761,1.557987 1.64003,1.706471"
         id="path2777-5-9-5"
         sodipodi:nodetypes="ccc" />
      <path
         style="fill:#3d3d3d;fill-opacity:1;stroke:#3d3d3d;stroke-width:0.0649999;stroke-linecap:round;stroke-linejoin:round;stroke-miterlimit:4;stroke-dasharray:none;stroke-opacity:1;paint-order:stroke fill markers"
         d="m 223.88659,74.080224 c -0.44063,-0.218077 -0.81372,-0.587896 -1.02063,-1.011685 -0.0346,-0.07083 -0.0761,-0.168899 -0.0924,-0.217937 -0.034,-0.102666 -0.063,-0.22288 -0.0556,-0.230283 0.007,-0.0072 1.3097,0.287653 1.32111,0.299059 0.007,0.007 -0.0108,1.223981 -0.0179,1.223981 -0.004,0 -0.0645,-0.02841 -0.13468,-0.06314 z"
         id="path2943-5" />
      <path
         style="fill:#3d3d3d;fill-opacity:1;stroke:#3d3d3d;stroke-width:0.0649999;stroke-linecap:round;stroke-linejoin:round;stroke-miterlimit:4;stroke-dasharray:none;stroke-opacity:1;paint-order:stroke fill markers"
         d="m 224.2048,74.206671 c -0.12047,-0.0354 -0.16473,-0.05568 -0.15749,-0.07215 0.0124,-0.02818 0.0214,-0.301803 0.0251,-0.760924 l 0.004,-0.447807 0.0248,0.006 c 0.0665,0.01598 0.47224,0.124537 0.55735,0.14909 l 0.0967,0.0279 -0.0451,0.04423 c -0.11578,0.113628 -0.25695,0.365308 -0.32493,0.579284 -0.0375,0.118152 -0.0785,0.292198 -0.0974,0.413787 -0.007,0.04211 -0.0167,0.07626 -0.0225,0.07588 -0.006,-2.64e-4 -0.0329,-0.0072 -0.0601,-0.01524 z"
         id="path2945-63" />
      <path
         style="fill:none;stroke:#000000;stroke-width:0.065;stroke-linecap:round;stroke-linejoin:miter;stroke-miterlimit:4;stroke-dasharray:none;stroke-opacity:1"
         d="m 222.66632,72.562799 c 1.57808,0.37283 3.99181,0.751369 4.73903,2.245799"
         id="path2779-7-7-4"
         sodipodi:nodetypes="cc" />
      <path
         style="fill:none;stroke:#000000;stroke-width:0.065;stroke-linecap:round;stroke-linejoin:miter;stroke-miterlimit:4;stroke-dasharray:none;stroke-opacity:1"
         d="m 227.21055,73.238617 c 0.31949,0.335869 0.41936,1.022532 0.1948,1.569981"
         id="path2781-8-5-60"
         sodipodi:nodetypes="cc" />
      <path
         style="fill:none;stroke:#000000;stroke-width:0.065;stroke-linecap:round;stroke-linejoin:miter;stroke-miterlimit:4;stroke-dasharray:none;stroke-opacity:1"
         d="m 224.30635,74.26927 c 0.0603,-0.437462 0.17894,-0.866453 0.49991,-1.161133"
         id="path2783-0-8-7"
         sodipodi:nodetypes="cc" />
      <path
         style="fill:#3d3d3d;fill-opacity:1;stroke:#3d3d3d;stroke-width:0.01;stroke-linecap:round;stroke-linejoin:round;stroke-miterlimit:4;stroke-dasharray:none;stroke-opacity:1;paint-order:stroke fill markers"
         d="m 226.44186,72.712551 c -0.0609,-0.02066 -0.15918,-0.04548 -0.22533,-0.05688 -0.0266,-0.0046 -0.0492,-0.0092 -0.0503,-0.01032 -0.001,-0.0011 -2.7e-4,-0.007 0.002,-0.01312 0.004,-0.01251 0.002,-0.02657 -0.006,-0.03566 -0.007,-0.0084 -0.005,-0.0079 0.0356,0.0066 0.10995,0.03948 0.31739,0.127141 0.29986,0.126712 -0.003,-7.2e-5 -0.028,-0.0079 -0.0559,-0.01733 z"
         id="path2951-7" />
      <path
         style="fill:#3d3d3d;fill-opacity:1;stroke:#3d3d3d;stroke-width:0.01;stroke-linecap:round;stroke-linejoin:round;stroke-miterlimit:4;stroke-dasharray:none;stroke-opacity:1;paint-order:stroke fill markers"
         d="m 227.37717,74.683942 c -0.13826,-0.242538 -0.34636,-0.483306 -0.59028,-0.682937 -0.22151,-0.18129 -0.46993,-0.338439 -0.77072,-0.487553 -0.32483,-0.161028 -0.67398,-0.297272 -1.1085,-0.432551 -0.0376,-0.01169 -0.0697,-0.0217 -0.0714,-0.02225 -0.004,-0.0013 0.0493,-0.04796 0.0997,-0.08695 0.30124,-0.233006 0.69283,-0.356061 1.0694,-0.33605 0.0936,0.005 0.13026,0.0097 0.2192,0.02797 0.0842,0.01733 0.14883,0.03398 0.21979,0.05658 0.0299,0.0095 0.0565,0.01733 0.0589,0.01733 0.01,0 0.0925,0.03743 0.1395,0.063 0.16401,0.08918 0.28454,0.17513 0.39037,0.2784 0.0565,0.05512 0.0945,0.09901 0.13035,0.150688 0.0134,0.01926 0.0354,0.04763 0.0488,0.06304 0.12353,0.141346 0.21913,0.364628 0.25718,0.600655 0.017,0.105238 0.0208,0.155334 0.0209,0.274933 1.9e-4,0.163825 -0.0128,0.274434 -0.0493,0.420283 -0.0104,0.04169 -0.0387,0.134927 -0.0409,0.134803 -2.7e-4,-2.2e-5 -0.0108,-0.01775 -0.0231,-0.03939 z"
         id="path2953-6" />
    </g>
    <path
       style="fill:#074773;fill-opacity:1;stroke:#3d3d3d;stroke-width:0.0377953;stroke-linecap:round;stroke-linejoin:round;stroke-miterlimit:4;stroke-dasharray:none;stroke-opacity:1;paint-order:stroke fill markers"
       d="m 137.76998,422.40713 -26.7269,-0.1622 -0.37609,-2.7439 c -0.83303,-6.07761 -5.1739,-12.12901 -10.843463,-15.11635 -2.652353,-1.39755 -3.710943,-1.59119 -8.710274,-1.59333 -4.571343,-0.002 -6.242032,0.25216 -8.491936,1.29161 -6.054446,2.79713 -10.71344,8.97423 -11.622661,15.40983 l -0.413472,2.92661 -4.503074,-0.38065 C 63.605418,421.82939 57.853223,421.6581 53.299452,421.6581 H 45.01987 l -0.992986,-3.41575 c -3.217575,-11.06807 4.888857,-29.6203 14.949727,-34.21368 2.417768,-1.10385 4.780372,-1.11974 89.046389,-0.59899 47.60951,0.29422 88.31495,0.69314 90.45656,0.88649 3.28808,0.29686 3.68414,0.44726 2.54596,0.96678 -2.59199,1.18312 -2.01564,1.66535 5.54121,4.63629 l 5.39145,2.11962 0.16328,10.9158 0.16328,10.91579 h -1.57105 c -0.9901,0 -2.32951,0.75847 -3.62217,2.05113 -1.86714,1.86714 -2.01611,2.27018 -1.66069,4.49288 l 0.39046,2.44174 h -12.34568 -12.34568 l -0.33249,-1.64739 c -1.87328,-9.28146 -5.63003,-14.10605 -13.33085,-17.12005 -3.59869,-1.40849 -10.05171,-1.30946 -14.13119,0.21687 -6.45071,2.41352 -11.52222,8.76421 -12.19359,15.26916 l -0.33867,3.28141 -8.15313,-0.14344 c -4.48422,-0.0789 -20.18023,-0.21642 -34.88003,-0.30563 z m 41.58595,-3.69758 c 0.19207,-1.62171 1.02343,-4.27904 1.84746,-5.9052 1.50048,-2.96106 7.01235,-8.5187 8.44855,-8.5187 1.19026,0 1.45103,-2.66378 1.07026,-10.93266 l -0.35171,-7.63789 -25.81638,0.004 c -25.76172,0.004 -33.90356,0.31175 -33.90356,1.28047 0,0.28183 13.20906,0.51242 29.35346,0.51242 h 29.35345 l -0.0161,7.33836 -0.0161,7.33837 -2.45102,1.49762 c -4.77436,2.91724 -8.61305,9.09251 -9.30996,14.97684 -0.28664,2.42019 -0.1823,2.99466 0.5439,2.99466 0.62973,0 1.00305,-0.88219 1.24778,-2.94855 z M 146.5704,394.66348 c 1.09948,-0.91248 1.09292,-2.61253 -0.0137,-3.53088 -0.98627,-0.81854 -11.25549,-1.14436 -13.32961,-0.42293 -2.67972,0.93208 -2.26876,4.16364 0.61191,4.81178 2.30275,0.51811 11.84837,-0.12517 12.73134,-0.85797 z"
       id="path3085"
       transform="scale(0.26458333)" />
    <path
       style="fill:#074773;fill-opacity:1;stroke:#3d3d3d;stroke-width:0.0377953;stroke-linecap:round;stroke-linejoin:round;stroke-miterlimit:4;stroke-dasharray:none;stroke-opacity:1;paint-order:stroke fill markers"
       d="m 541.33039,425.40226 c -25.29909,-0.17318 -24.86271,-0.12104 -24.88245,-2.97287 -0.0346,-4.99407 -5.49191,-12.4029 -11.18223,-15.18087 -4.06061,-1.98236 -12.9198,-2.06041 -17.09992,-0.15065 -5.72556,2.61582 -10.56151,9.25385 -11.14187,15.29378 l -0.28365,2.95193 -12.34969,-0.38996 c -6.79233,-0.21447 -12.67253,-0.49068 -13.0671,-0.61379 -1.12294,-0.35035 -2.09156,-4.89658 -2.04331,-9.59032 0.10496,-10.2095 6.6519,-22.57057 14.35168,-27.09697 2.5075,-1.47405 3.35558,-1.63791 8.47722,-1.63791 33.9313,0 171.14767,1.02755 173.42498,1.2987 2.48109,0.29542 2.76388,0.44262 1.64739,0.85752 -2.61562,0.97201 -1.43726,2.16602 4.49287,4.55254 l 5.84074,2.35054 0.16298,10.81836 0.16298,10.81836 -1.67651,0.3353 c -0.92208,0.18442 -2.43412,0.93125 -3.36011,1.65963 -1.50106,1.18074 -1.66172,1.63996 -1.48172,4.23547 l 0.20188,2.91115 -12.43029,-3.8e-4 c -11.80043,-3.5e-4 -12.43029,-0.0579 -12.43029,-1.13537 0,-0.62425 -0.56445,-2.96249 -1.25434,-5.19609 -1.65208,-5.3488 -6.24912,-10.17134 -11.62965,-12.20011 -4.71665,-1.77845 -11.78749,-1.54725 -15.87041,0.51892 -5.87969,2.97543 -10.33475,8.95454 -11.12807,14.9349 l -0.40823,3.07738 -10.55596,-0.14269 c -5.80578,-0.0785 -21.32489,-0.21641 -34.48692,-0.3065 z m 43.92732,-4.19345 c 1.19903,-6.04599 6.09463,-12.68926 10.1059,-13.7136 1.32449,-0.33822 1.34786,-0.50405 1.34786,-9.56453 v -9.22033 h -24.76855 c -25.24954,0 -35.7355,0.37788 -35.7355,1.2878 0,0.28014 13.20905,0.50935 29.35345,0.50935 h 29.35345 v 7.47274 7.47274 l -1.64738,0.86592 c -4.85789,2.55343 -9.71803,10.2912 -9.72872,15.48896 -0.008,3.89186 0.89097,3.57867 1.71949,-0.59905 z m -34.58293,-22.9287 c 3.37721,-0.93805 3.73685,-3.74969 0.59258,-4.63277 -2.43621,-0.68421 -11.02152,-0.42443 -12.52259,0.37892 -0.82368,0.44082 -1.33925,1.27858 -1.33925,2.17616 0,1.13185 0.437,1.5856 1.94691,2.02158 2.65273,0.76594 8.65958,0.79571 11.32235,0.0561 z"
       id="path3087"
       transform="scale(0.26458333)" />
    <text
       xml:space="preserve"
       style="font-style:normal;font-weight:normal;font-size:6.35px;line-height:1.25;font-family:sans-serif;fill:#000000;fill-opacity:1;stroke:none;stroke-width:0.264583"
       x="66.037903"
       y="127.8838"
       id="text1500-3"><tspan
         sodipodi:role="line"
         id="tspan1498-4"
         x="66.037903"
         y="127.8838"
         style="font-size:6.35px;stroke-width:0.264583">t<tspan
   style="font-size:65%;baseline-shift:sub"
   id="tspan1815">0</tspan></tspan></text>
    <text
       xml:space="preserve"
       style="font-style:normal;font-weight:normal;font-size:6.35px;line-height:1.25;font-family:sans-serif;fill:#000000;fill-opacity:1;stroke:none;stroke-width:0.264583"
       x="172.08904"
       y="127.8838"
       id="text1500-3-4"><tspan
         sodipodi:role="line"
         id="tspan1498-4-4"
         x="172.08904"
         y="127.8838"
         style="font-size:6.35px;stroke-width:0.264583">t<tspan
   style="font-size:65%;baseline-shift:sub"
   id="tspan1845">1</tspan></tspan></text>
    <path
       style="fill:none;stroke:#727272;stroke-width:0.264585px;stroke-linecap:butt;stroke-linejoin:miter;stroke-opacity:1"
       d="m 174.50131,122.48563 v -6.33 0 0"
       id="path40-7-9" />
    <path
       style="fill:none;stroke:#727272;stroke-width:0.264584px;stroke-linecap:butt;stroke-linejoin:miter;stroke-opacity:1"
       d="m 68.081584,121.9551 v -6.85781 0 0"
       id="path40-7-9-0" />
    <path
       style="fill:#8e8e8e;fill-opacity:1;stroke:#8e8e8e;stroke-width:0.264583px;stroke-linecap:butt;stroke-linejoin:miter;stroke-opacity:1"
       d="M 126.00643,94.623693 115.38702,94.465194"
       id="path1036" />
    <path
       style="fill:#8e8e8e;fill-opacity:1;stroke:#8e8e8e;stroke-width:0.264583px;stroke-linecap:butt;stroke-linejoin:miter;stroke-opacity:1"
       d="M 124.52775,99.588903 113.90834,99.430406"
       id="path1036-7" />
    <path
       style="fill:#8e8e8e;fill-opacity:1;stroke:#8e8e8e;stroke-width:0.264583px;stroke-linecap:butt;stroke-linejoin:miter;stroke-opacity:1"
       d="m 121.33324,97.106305 -10.61941,-0.1585"
       id="path1036-0" />
  </g>
</svg>
